# xmcd
#
# Track frame offsets:
#	150
#	13094
#	26648
#	39462
#	52462
#	70240
#	83337
#	96445
#	110329
#	122376
#	137931
#	149324
#	169278
#	185183
#
# Disc length: 2614 seconds
#
# Revision: 3
# Processed by: cddbd v1.5.2PL0 Copyright (c) Steve Scherf et al.
# Submitted via: audiograbber 1.83.01
#
DISCID=cb0a340e
DTITLE=Die jungen Zillertaler - Tannenzapfenzupfen
DYEAR=2006
DGENRE=Volksmusik
TTITLE0=Tannenzapfenzupfen
TTITLE1=Wenn i di tanzen seh
TTITLE2=Auf der Alm
TTITLE3=Greifs beim Hals und zupf's beim Loch
TTITLE4=Lass dich fallen
TTITLE5=Zillertal du bist genial
TTITLE6=Gemma an die Bar
TTITLE7=Dirndl and Tanga
TTITLE8=Windows is net Fensterln
TTITLE9=Franz steht auf Susi
TTITLE10=Diandl Tanz
TTITLE11=Es muss was weitergehn
TTITLE12=Cowboy und Indianer
TTITLE13=Hexentanz
EXTD=
EXTT0=
EXTT1=
EXTT2=
EXTT3=
EXTT4=
EXTT5=
EXTT6=
EXTT7=
EXTT8=
EXTT9=
EXTT10=
EXTT11=
EXTT12=
EXTT13=
PLAYORDER=
